<?xml version="1.0" encoding="utf-8"?>
<!-- Generator: Adobe Illustrator 27.7.0, SVG Export Plug-In . SVG Version: 6.00 Build 0)  -->
<svg version="1.1" id="Layer_1" xmlns="http://www.w3.org/2000/svg" xmlns:xlink="http://www.w3.org/1999/xlink" x="0px" y="0px"
	 viewBox="0 0 406.62 74.42" style="enable-background:new 0 0 406.62 74.42;" xml:space="preserve">
<style type="text/css">
	.st0{fill:#62C6D3;}
	.st1{fill:url(#SVGID_1_);}
	.st2{fill:url(#SVGID_00000119801616846391934180000004986423441545494686_);}
	.st3{fill:#3CA77D;}
	.st4{fill:#61C5D2;}
	.st5{fill:url(#SVGID_00000158718996496667526780000002728841234642251960_);}
	.st6{fill:url(#SVGID_00000063626665452061518110000010821962512027911077_);}
	.st7{fill:#3FA67D;}
</style>
<g>
	<g>
		<g>
			<path class="st0" d="M26.25,33.57l-20.4-5.82C2.39,26.77,0,23.62,0,20.04V8.03C0,3.59,3.62,0,8.08,0h10.09
				c4.46,0,8.08,3.59,8.08,8.03V33.57z"/>
		</g>
		<g>
			<linearGradient id="SVGID_1_" gradientUnits="userSpaceOnUse" x1="26.2481" y1="50.3613" x2="0" y2="50.3613">
				<stop  offset="0" style="stop-color:#3F77B8"/>
				<stop  offset="1" style="stop-color:#17579D"/>
			</linearGradient>
			<path class="st1" d="M18.17,67.15H8.08C3.62,67.15,0,63.55,0,59.12V47.11c0-3.58,2.39-6.73,5.85-7.72l20.4-5.82v25.55
				C26.25,63.55,22.63,67.15,18.17,67.15z"/>
		</g>
		<g>
			
				<linearGradient id="SVGID_00000062902254538141154560000007822187798693377212_" gradientUnits="userSpaceOnUse" x1="26.2481" y1="16.7871" x2="76.8081" y2="16.7871">
				<stop  offset="0" style="stop-color:#3F77B8"/>
				<stop  offset="1" style="stop-color:#17579D"/>
			</linearGradient>
			<path style="fill:url(#SVGID_00000062902254538141154560000007822187798693377212_);" d="M69.92,27.11l-43.67,6.47L48.14,3.34
				C49.66,1.24,52.1,0,54.7,0h14.03c4.46,0,8.08,3.59,8.08,8.03v11.14C76.81,23.15,73.88,26.52,69.92,27.11z"/>
		</g>
		<g>
			<path class="st3" d="M77.12,74.42H62.85c-2.46,0-4.79-1.12-6.32-3.03L26.25,33.57L79.09,46.8c3.59,0.9,6.1,4.11,6.1,7.79v11.8
				C85.2,70.82,81.58,74.42,77.12,74.42z"/>
		</g>
	</g>
	<g>
		<g>
			<path d="M188.32,0.39h-13.92c-1.07,0-2.08,0.47-2.77,1.28l-18.62,22l-10.28,12.14l-0.57,0.67V3.99c0-1.99-1.62-3.6-3.62-3.6
				h-8.31c-2,0-3.62,1.61-3.62,3.6v66.8c0,1.99,1.62,3.6,3.62,3.6h8.31c2,0,3.62-1.61,3.62-3.6v-8.63c0-1.07,0.38-2.1,1.07-2.92
				l9.12-10.78l10.28-12.14L190,3.97C191.2,2.55,190.18,0.39,188.32,0.39z"/>
		</g>
		<g>
			<path d="M166.79,41.79c-0.25-0.32-0.73-0.34-0.99-0.02l-9.42,11.18c-0.19,0.23-0.2,0.55-0.02,0.78l14.63,19.22
				c0.68,0.9,1.75,1.43,2.89,1.43h13.43c1.76,0,2.76-2,1.7-3.39L166.79,41.79z"/>
		</g>
		<g>
			<path d="M262.38,2.78c-0.51-1.44-1.88-2.4-3.41-2.4h-12.94c-1.53,0-2.9,0.96-3.41,2.4l-23.86,66.8
				c-0.84,2.34,0.91,4.81,3.41,4.81h8.83c1.53,0,2.9-0.96,3.41-2.4l17.82-49.92c0.09-0.24,0.44-0.24,0.52,0l17.84,49.92
				c0.51,1.44,1.88,2.4,3.41,2.4h8.82c2.5,0,4.25-2.46,3.41-4.81L262.38,2.78z"/>
		</g>
		<g>
			<path d="M365.25,30.21c0.89-2.41,1.37-5.01,1.37-7.73c0-2.31-0.34-4.53-1-6.63c-2.76-8.97-10.97-15.46-20.67-15.46H316.9
				c-2,0-3.62,1.61-3.62,3.6v66.8c0,1.99,1.62,3.6,3.62,3.6H345c9.15,0,17.55-5.62,20.41-14.26c0.13-0.4,0.25-0.8,0.36-1.2
				c0.54-1.93,0.82-3.97,0.82-6.07c0-2.51-0.4-4.93-1.14-7.18c-0.91-2.76-2.32-5.28-4.12-7.46c-0.31-0.38-0.31-0.91,0.01-1.29
				C363.01,34.96,364.34,32.69,365.25,30.21z M343.84,60.03h-15V45.67h15c3.99,0,7.22,3.21,7.22,7.18S347.83,60.03,343.84,60.03z
				 M343.84,30.21h-15V15.85h15c3.99,0,7.22,3.21,7.22,7.18S347.83,30.21,343.84,30.21z"/>
		</g>
		<g>
			<path d="M402.99,0.38h-8.31c-2,0-3.62,1.61-3.62,3.6v16.53c0,0.32,0.36,0.5,0.62,0.31l14.79-10.99c0.1-0.07,0.15-0.19,0.15-0.31
				V3.99C406.62,2,404.99,0.38,402.99,0.38z"/>
		</g>
		<g>
			<path d="M406,17.08l-14.79,10.99c-0.1,0.07-0.15,0.19-0.15,0.31v42.41c0,1.99,1.62,3.6,3.62,3.6h8.31c2,0,3.62-1.61,3.62-3.6
				v-53.4C406.62,17.07,406.25,16.89,406,17.08z"/>
		</g>
	</g>
</g>
</svg>
